<svg width="162" height="42" viewBox="0 0 162 42" fill="none" xmlns="http://www.w3.org/2000/svg">
<path d="M16.7194 18.7436H12.0994V23.4956C12.0994 24.6396 12.4954 25.3142 13.2874 25.5196C14.0794 25.7249 15.2234 25.7836 16.7194 25.6956V32.9996C14.4314 33.3222 12.4661 33.3809 10.8234 33.1756C9.21006 32.9996 7.89006 32.5449 6.8634 31.8116C5.86606 31.0782 5.13273 30.0662 4.66339 28.7756C4.19406 27.4556 3.95939 25.8422 3.95939 23.9356V18.7436H0.879395V10.9996H3.95939V7.25956L12.0994 4.83956V10.9996H16.7194V18.7436Z" fill="#0335A2"/>
<path d="M23.6937 9.32756C22.4617 9.32756 21.3911 8.88756 20.4817 8.00756C19.6017 7.09823 19.1617 6.04223 19.1617 4.83956C19.1617 3.6369 19.6017 2.59556 20.4817 1.71556C21.3911 0.806229 22.4617 0.351562 23.6937 0.351562C24.8964 0.351562 25.9377 0.806229 26.8177 1.71556C27.7271 2.59556 28.1817 3.6369 28.1817 4.83956C28.1817 6.04223 27.7271 7.09823 26.8177 8.00756C25.9377 8.88756 24.8964 9.32756 23.6937 9.32756ZM19.6017 32.9996V10.9996H27.7417V32.9996H19.6017Z" fill="#0335A2"/>
<path d="M31.2463 32.9996V0.879564H39.3863V32.9996H31.2463Z" fill="#0335A2"/>
<path d="M46.9828 9.32756C45.7508 9.32756 44.6801 8.88756 43.7708 8.00756C42.8908 7.09823 42.4508 6.04223 42.4508 4.83956C42.4508 3.6369 42.8908 2.59556 43.7708 1.71556C44.6801 0.806229 45.7508 0.351562 46.9828 0.351562C48.1855 0.351562 49.2268 0.806229 50.1068 1.71556C51.0161 2.59556 51.4708 3.6369 51.4708 4.83956C51.4708 6.04223 51.0161 7.09823 50.1068 8.00756C49.2268 8.88756 48.1855 9.32756 46.9828 9.32756ZM42.8908 32.9996V10.9996H51.0308V32.9996H42.8908Z" fill="#0335A2"/>
<path d="M80.4953 10.3836C83.0767 10.3836 85.0713 11.1756 86.4793 12.7596C87.9167 14.3436 88.6353 16.6316 88.6353 19.6236V32.9996H80.4953V20.7236C80.4953 19.0516 79.7473 18.2156 78.2513 18.2156C76.5207 18.2156 75.6553 19.3009 75.6553 21.4716V32.9996H67.5153V20.7236C67.5153 19.0516 66.7673 18.2156 65.2713 18.2156C63.5407 18.2156 62.6753 19.3009 62.6753 21.4716V32.9996H54.5353V10.9996H62.6753V13.0676C64.1127 11.2782 66.1073 10.3836 68.6593 10.3836C71.182 10.3836 73.0153 11.2929 74.1593 13.1116C75.7433 11.2929 77.8553 10.3836 80.4953 10.3836Z" fill="#0335A2"/>
<path d="M105.954 10.3836C108.887 10.3836 111.307 11.4836 113.214 13.6836C115.091 15.8542 116.03 18.6262 116.03 21.9996C116.03 25.3729 115.091 28.1449 113.214 30.3156C111.307 32.5156 108.887 33.6156 105.954 33.6156C103.431 33.6156 101.466 32.7502 100.058 31.0196V41.7996H91.9181V10.9996H100.058V12.9796C101.466 11.2489 103.431 10.3836 105.954 10.3836ZM101.114 24.9476C101.847 25.7396 102.801 26.1356 103.974 26.1356C105.147 26.1356 106.086 25.7396 106.79 24.9476C107.142 24.5662 107.406 24.1116 107.582 23.5836C107.787 23.0556 107.89 22.5276 107.89 21.9996C107.89 21.4716 107.787 20.9582 107.582 20.4596C107.406 19.9316 107.142 19.4622 106.79 19.0516C106.086 18.2596 105.147 17.8636 103.974 17.8636C102.801 17.8636 101.847 18.2596 101.114 19.0516C100.762 19.4622 100.498 19.9316 100.322 20.4596C100.146 20.9582 100.058 21.4716 100.058 21.9996C100.058 22.5276 100.146 23.0556 100.322 23.5836C100.498 24.1116 100.762 24.5662 101.114 24.9476Z" fill="#0335A2"/>
<path d="M121.594 8.66756C121.594 6.81956 121.843 5.36756 122.342 4.31156C122.87 3.22623 123.515 2.46356 124.278 2.02356C125.07 1.55423 125.935 1.33423 126.874 1.36356C127.842 1.3929 128.766 1.58356 129.646 1.93556C129.998 2.08223 130.32 2.2289 130.614 2.37556C130.907 2.52223 131.156 2.61023 131.362 2.63956C131.596 2.6689 131.772 2.59556 131.89 2.41956C132.036 2.24356 132.11 1.8769 132.11 1.31956H137.39C137.39 3.1089 137.14 4.59023 136.642 5.76356C136.143 6.90756 135.483 7.6849 134.662 8.09556C133.048 8.8289 131.259 8.81423 129.294 8.05156C128.971 7.93423 128.663 7.78756 128.37 7.61156C128.076 7.43556 127.812 7.3329 127.578 7.30356C127.372 7.27423 127.196 7.36223 127.05 7.56756C126.932 7.74356 126.874 8.11023 126.874 8.66756H121.594ZM129.47 33.6156C126.184 33.6156 123.383 32.5009 121.066 30.2716C118.778 28.0422 117.634 25.2849 117.634 21.9996C117.634 18.7436 118.778 15.9862 121.066 13.7276C123.324 11.4982 126.126 10.3836 129.47 10.3836C132.814 10.3836 135.615 11.4982 137.874 13.7276C140.162 15.9862 141.306 18.7436 141.306 21.9996C141.306 25.2849 140.162 28.0422 137.874 30.2716C135.615 32.5009 132.814 33.6156 129.47 33.6156ZM126.786 24.8156C127.49 25.5196 128.384 25.8716 129.47 25.8716C130.555 25.8716 131.435 25.5196 132.11 24.8156C132.814 24.0822 133.166 23.1436 133.166 21.9996C133.166 20.8556 132.814 19.9316 132.11 19.2276C131.464 18.4942 130.584 18.1276 129.47 18.1276C128.384 18.1276 127.49 18.4942 126.786 19.2276C126.111 19.9609 125.774 20.8849 125.774 21.9996C125.774 23.1142 126.111 24.0529 126.786 24.8156Z" fill="#C8E360"/>
<path d="M153.359 25.5196H161.015V32.9996H142.535V27.2796L149.751 18.4796H142.975V10.9996H160.575V16.7196L153.359 25.5196Z" fill="#0335A2"/>
</svg>
