<svg width="1082" height="274" viewBox="0 0 1082 274" fill="none" xmlns="http://www.w3.org/2000/svg">
<path d="M92.119 62.8677V94.8512H0V62.8677H92.119ZM20.9135 26.0866H63.338V169.213C63.338 173.144 63.9356 176.209 65.1306 178.408C66.3257 180.54 67.9855 182.04 70.11 182.906C72.301 183.772 74.8239 184.205 77.6787 184.205C79.6705 184.205 81.6623 184.039 83.654 183.705C85.6458 183.306 87.1728 183.006 88.2351 182.806L94.9075 214.49C92.7829 215.156 89.7953 215.922 85.9445 216.788C82.0938 217.721 77.4132 218.288 71.9026 218.488C61.6782 218.887 52.7153 217.521 45.0138 214.39C37.3787 211.258 31.4366 206.394 27.1876 199.797C22.9385 193.201 20.8471 184.872 20.9135 174.81V26.0866Z" fill="white"/>
<path d="M119.755 216.389V62.8677H162.179V216.389H119.755ZM141.067 43.0778C134.759 43.0778 129.348 40.9789 124.834 36.7811C120.385 32.5166 118.161 27.4192 118.161 21.4889C118.161 15.6253 120.385 10.5946 124.834 6.39672C129.348 2.13224 134.759 0 141.067 0C147.374 0 152.752 2.13224 157.2 6.39672C161.715 10.5946 163.972 15.6253 163.972 21.4889C163.972 27.4192 161.715 32.5166 157.2 36.7811C152.752 40.9789 147.374 43.0778 141.067 43.0778Z" fill="white"/>
<path d="M238.588 11.694V216.389H196.164V11.694H238.588Z" fill="white"/>
<path d="M272.573 216.389V62.8677H314.997V216.389H272.573ZM293.885 43.0778C287.577 43.0778 282.166 40.9789 277.652 36.7811C273.203 32.5166 270.979 27.4192 270.979 21.4889C270.979 15.6253 273.203 10.5946 277.652 6.39672C282.166 2.13224 287.577 0 293.885 0C300.192 0 305.57 2.13224 310.018 6.39672C314.532 10.5946 316.79 15.6253 316.79 21.4889C316.79 27.4192 314.532 32.5166 310.018 36.7811C305.57 40.9789 300.192 43.0778 293.885 43.0778Z" fill="white"/>
<path d="M348.982 216.389V62.8677H389.414V89.9537H391.207C394.394 80.9584 399.705 73.862 407.141 68.6647C414.577 63.4674 423.474 60.8687 433.831 60.8687C444.321 60.8687 453.25 63.5007 460.62 68.7646C467.989 73.962 472.902 81.025 475.359 89.9537H476.952C480.073 81.1582 485.716 74.1285 493.882 68.8646C502.115 63.534 511.841 60.8687 523.062 60.8687C537.336 60.8687 548.921 65.433 557.818 74.5617C566.781 83.6236 571.262 96.4837 571.262 113.142V216.389H528.937V121.537C528.937 113.009 526.68 106.612 522.165 102.347C517.651 98.0829 512.007 95.9506 505.235 95.9506C497.534 95.9506 491.525 98.416 487.21 103.347C482.894 108.211 480.737 114.641 480.737 122.637V216.389H439.607V120.638C439.607 113.108 437.449 107.112 433.134 102.647C428.885 98.1828 423.274 95.9506 416.303 95.9506C411.589 95.9506 407.34 97.15 403.556 99.5488C399.838 101.881 396.884 105.179 394.693 109.444C392.502 113.642 391.406 118.572 391.406 124.236V216.389H348.982Z" fill="white"/>
<path d="M604.774 273.959V62.8677H646.601V88.6544H648.493C650.352 84.5232 653.041 80.3253 656.56 76.0609C660.145 71.7298 664.792 68.1316 670.502 65.2664C676.278 62.3346 683.448 60.8687 692.013 60.8687C703.167 60.8687 713.458 63.8005 722.885 69.6642C732.313 75.4612 739.848 84.2233 745.492 95.9506C751.135 107.611 753.957 122.237 753.957 139.828C753.957 156.953 751.201 171.412 745.691 183.206C740.247 194.933 732.811 203.828 723.383 209.892C714.022 215.889 703.532 218.887 691.913 218.887C683.681 218.887 676.676 217.521 670.9 214.789C665.191 212.058 660.51 208.626 656.858 204.495C653.207 200.297 650.418 196.066 648.493 191.801H647.198V273.959H604.774ZM646.302 139.628C646.302 148.757 647.563 156.719 650.086 163.516C652.609 170.312 656.261 175.61 661.041 179.408C665.821 183.139 671.63 185.005 678.469 185.005C685.374 185.005 691.216 183.106 695.996 179.308C700.777 175.443 704.395 170.112 706.852 163.316C709.374 156.453 710.636 148.557 710.636 139.628C710.636 130.766 709.408 122.97 706.951 116.24C704.495 109.51 700.876 104.246 696.096 100.448C691.316 96.6503 685.44 94.7513 678.469 94.7513C671.564 94.7513 665.722 96.5836 660.941 100.248C656.228 103.913 652.609 109.111 650.086 115.84C647.563 122.57 646.302 130.5 646.302 139.628Z" fill="white"/>
<path d="M851.354 219.387C835.885 219.387 822.507 216.089 811.22 209.492C800 202.829 791.335 193.567 785.227 181.707C779.119 169.779 776.065 155.953 776.065 140.228C776.065 124.369 779.119 110.51 785.227 98.6493C791.335 86.7221 800 77.4602 811.22 70.8635C822.507 64.2003 835.885 60.8687 851.354 60.8687C866.823 60.8687 880.168 64.2003 891.388 70.8635C902.675 77.4602 911.372 86.7221 917.48 98.6493C923.589 110.51 926.643 124.369 926.643 140.228C926.643 155.953 923.589 169.779 917.48 181.707C911.372 193.567 902.675 202.829 891.388 209.492C880.168 216.089 866.823 219.387 851.354 219.387ZM851.553 186.404C858.591 186.404 864.466 184.405 869.18 180.407C873.894 176.343 877.446 170.812 879.836 163.816C882.293 156.819 883.521 148.857 883.521 139.928C883.521 130.999 882.293 123.037 879.836 116.04C877.446 109.044 873.894 103.513 869.18 99.4488C864.466 95.3843 858.591 93.352 851.553 93.352C844.449 93.352 838.474 95.3843 833.627 99.4488C828.847 103.513 825.229 109.044 822.772 116.04C820.382 123.037 819.187 130.999 819.187 139.928C819.187 148.857 820.382 156.819 822.772 163.816C825.229 170.812 828.847 176.343 833.627 180.407C838.474 184.405 844.449 186.404 851.553 186.404ZM822.872 43.9774L799.269 43.6775C799.269 30.9508 802.39 21.1891 808.631 14.3926C814.938 7.5961 822.606 4.16453 831.635 4.0979C836.283 4.0979 840.266 4.86417 843.586 6.39672C846.972 7.86263 849.993 9.59507 852.648 11.594C855.371 13.593 857.96 15.3588 860.416 16.8913C862.873 18.3572 865.529 19.0902 868.383 19.0902C872.234 19.0236 875.155 17.591 877.147 14.7924C879.205 11.9272 880.234 8.19579 880.234 3.59816L903.438 4.29779C903.306 16.8913 900.119 26.6196 893.878 33.4828C887.637 40.2793 880.035 43.7109 871.072 43.7775C866.093 43.7775 861.91 43.0445 858.524 41.5786C855.205 40.0461 852.283 38.3136 849.76 36.3813C847.238 34.3823 844.781 32.6166 842.391 31.084C840.001 29.5515 837.312 28.7852 834.324 28.7852C830.872 28.7852 828.083 30.1512 825.959 32.8831C823.901 35.615 822.872 39.3131 822.872 43.9774Z" fill="#C8E360"/>
<path d="M953.432 216.389V191.002L1028.32 97.9496V96.8502H956.021V62.8677H1079.41V90.5534L1009.1 181.307V182.406H1082V216.389H953.432Z" fill="white"/>
</svg>
